<svg version="1.2" baseProfile="tiny-ps" xmlns="http://www.w3.org/2000/svg" viewBox="0 0 387 72" width="387" height="72">
	<title>1920</title>
	<defs>
		<clipPath clipPathUnits="userSpaceOnUse" id="cp1">
			<path d="M189.91 0.87C132.64 0.87 75.62 1.35 20.45 2.3L20.45 2.3C14.66 2.4 9.34 3.63 5.47 5.76L5.47 5.76C1.62 7.88 -0.35 10.73 0.05 13.58L0.05 13.58L0.52 16.86L0.59 17.52C0.66 18.2 0.72 18.77 0.76 19.06L0.76 19.06C0.92 20.47 0.88 21.92 0.84 23.45L0.84 23.45C0.79 25.36 0.74 27.34 1.08 29.37L1.08 29.37C1.43 31.24 3.31 32.29 5.31 32.88L5.31 32.88C3.26 34.18 3.03 35.62 2.93 36.28L2.93 36.28C2.68 37.89 2.47 39.5 2.28 41.1L2.28 41.1C2.21 41.62 2.1 42.13 1.94 42.74L1.94 42.74L1.84 43.21C1.71 43.8 1.57 44.47 1.51 45.18L1.51 45.18C1.45 46 1.48 46.73 1.59 47.4L1.59 47.4C1.66 47.8 1.83 48.41 2.41 49.09L2.41 49.09C2.71 49.43 3.14 49.82 3.78 50.21L3.78 50.21C3.11 50.75 2.57 51.35 2.21 52L2.21 52C1.76 52.78 1.59 53.52 1.46 54.19L1.46 54.19C1.39 54.58 1.34 54.97 1.29 55.37L1.29 55.37C1.23 55.81 1.18 56.25 1.09 56.65L1.09 56.65L1.04 56.85C0.93 57 0.82 57.15 0.75 57.29L0.75 57.29C0.38 57.9 0.29 58.44 0.26 58.75L0.26 58.75C0.03 60.57 0.53 62.22 1.73 63.65L1.73 63.65C4.87 67.45 12.57 70.11 20.5 70.16L20.5 70.16C76.53 71.38 134 72 191.32 72L191.32 72C248.83 72 307.83 71.38 366.69 70.14L366.69 70.14C372.46 70.02 377.75 68.77 381.59 66.63L381.59 66.63C385.05 64.7 386.92 62.28 386.96 59.73L386.96 59.73L386.96 59.55C386.96 59.32 386.94 59.08 386.9 58.85L386.9 58.85C386.77 57.97 386.66 57.09 386.55 56.2L386.55 56.2C386.31 54.39 386.08 52.6 385.91 50.79L385.91 50.79C385.79 49.51 385.79 48.21 385.79 46.83L385.79 46.83L385.79 45.46C385.79 44.83 385.79 43.34 383.77 41.94L383.77 41.94C383.54 41.79 383.29 41.64 383.04 41.5L383.04 41.5C383.64 40.76 383.8 40.09 383.89 39.7L383.89 39.7C384.48 37.08 384.89 34.32 385.14 31.25L385.14 31.25C385.24 30.01 385.32 28.79 385.36 27.55L385.36 27.55C385.37 26.88 385.23 26.28 385.11 25.8L385.11 25.8C385.04 25.52 384.98 25.26 384.98 25.1L384.98 25.1C384.98 24.75 385.05 24.42 385.12 24.08L385.12 24.08C385.21 23.55 385.31 23.02 385.31 22.57L385.31 22.57C385.35 22.06 385.31 21.56 385.18 21.08L385.18 21.08C385.08 20.69 384.91 20.32 384.66 19.96L384.66 19.96C385.42 19.4 385.96 18.76 386.27 18.06L386.27 18.06C386.9 16.76 386.83 15.62 386.78 14.7L386.78 14.7C386.76 14.3 386.74 13.95 386.79 13.66L386.79 13.66C387.23 10.8 385.28 7.94 381.44 5.81L381.44 5.81C377.55 3.65 372.19 2.41 366.36 2.31L366.36 2.31C306.73 1.36 247.37 0.87 189.91 0.87Z" />
		</clipPath>
		<linearGradient id="grd1" gradientUnits="userSpaceOnUse"  x1="218.251" y1="-25.248" x2="211.664" y2="30.686">
			<stop offset="0" stop-color="#93e6ed"  />
			<stop offset="1" stop-color="#2190b5"  />
		</linearGradient>
		<clipPath clipPathUnits="userSpaceOnUse" id="cp2">
			<path d="M174.47 4.84C122.73 4.92 71.46 5.39 20.7 6.26L20.7 6.26C13.21 6.38 7.46 9.58 8 13.3L8 13.3C8.1 13.3 8.3 15.08 8.47 16.64L8.47 16.64C8.57 17.7 8.68 18.65 8.72 18.84L8.72 18.84C9.09 22.21 8.45 25.66 9.01 29.02L9.01 29.02C9.09 29.43 9.13 29.46 9.83 29.58L9.83 29.58C10.21 29.64 10.57 29.71 10.95 29.77L10.95 29.77C11.72 29.91 12.48 30.03 13.26 30.16L13.26 30.16C14.79 30.43 16.32 30.69 17.88 30.95L17.88 30.95C18.61 31.08 19.41 31.22 19.93 31.53L19.93 31.53C20.88 32.07 20.52 32.97 19.53 33.51L19.53 33.51C17.85 34.41 15.38 34.46 13.21 34.84L13.21 34.84C12.68 34.93 12.16 35.04 11.74 35.24L11.74 35.24C11.06 35.58 10.95 36.11 10.86 36.58L10.86 36.58C10.63 38.16 10.41 39.76 10.23 41.35L10.23 41.35C10.15 41.94 10.01 42.54 9.87 43.14L9.87 43.14C9.71 43.87 9.53 44.59 9.47 45.33L9.47 45.33C9.43 45.9 9.43 46.49 9.53 47.06L9.53 47.06C9.55 47.21 9.61 47.38 9.73 47.53L9.73 47.53C9.99 47.83 10.57 48 11.16 48.11L11.16 48.11C13.27 48.55 15.25 49 17.04 49.72L17.04 49.72C17.34 49.83 17.67 50.01 17.55 50.19L17.55 50.19C17.49 50.31 17.26 50.39 17.04 50.45L17.04 50.45C16.2 50.68 15.37 50.96 14.49 51.17L14.49 51.17C13.93 51.3 13.35 51.3 12.78 51.39L12.78 51.39C11.24 51.64 10.29 52.35 9.87 53.09L9.87 53.09C9.61 53.55 9.49 54.06 9.39 54.53L9.39 54.53C9.25 55.39 9.19 56.26 8.99 57.11L8.99 57.11C8.95 57.27 8.91 57.42 8.89 57.58L8.89 57.58C8.82 57.88 8.54 58.13 8.38 58.43L8.38 58.43C8.26 58.62 8.22 58.8 8.2 58.99L8.2 58.99C8.08 60.06 8.26 61.16 9.09 62.15L9.09 62.15C10.96 64.41 15.66 66.2 20.7 66.2L20.7 66.2C43.04 66.69 65.46 67.07 87.94 67.36L87.94 67.36C117.59 67.75 147.38 67.97 177.28 68.02L177.28 68.02C239.76 68.14 302.79 67.53 366.34 66.19L366.34 66.19C373.81 66.03 379.5 62.84 378.97 59.14L378.97 59.14C378.83 58.25 378.7 57.35 378.6 56.46L378.6 56.46C378.35 54.63 378.13 52.81 377.95 50.98L377.95 50.98C377.83 49.6 377.83 48.21 377.83 46.84L377.83 46.84L377.83 45.46C377.83 45.05 377.81 44.6 377.31 44.27L377.31 44.27C376.68 43.82 375.46 43.72 374.37 43.65L374.37 43.65C373.85 43.62 373.29 43.56 372.77 43.58L372.77 43.58C372.32 43.61 371.98 43.61 371.52 43.56L371.52 43.56C370.3 43.46 369.09 43.34 367.88 43.23L367.88 43.23C366.66 43.12 365.45 43 364.23 42.89L364.23 42.89C363.61 42.83 363.02 42.77 362.4 42.72L362.4 42.72C361.86 42.67 361.22 42.56 360.67 42.56L360.67 42.56C359.99 42.5 359.27 42.43 358.7 42.24L358.7 42.24C358.12 42.04 357.7 41.69 357.88 41.35L357.88 41.35C358.22 41.35 358.58 41.36 358.94 41.36L358.94 41.36C361.62 41.36 364.35 41.35 367.04 41.25L367.04 41.25C368.39 41.2 369.73 41.12 371.06 41.02L371.06 41.02C372.34 40.91 374.33 40.87 375.24 40.37L375.24 40.37C375.76 40.08 375.88 39.66 375.98 39.26L375.98 39.26C376.58 36.55 376.95 33.8 377.19 31.09L377.19 31.09C377.27 29.89 377.35 28.69 377.39 27.51L377.39 27.51C377.41 26.69 377.02 25.91 377.02 25.1L377.02 25.1C377.02 24.19 377.33 23.33 377.35 22.44L377.35 22.44C377.37 22.15 377.35 21.87 377.27 21.57L377.27 21.57C377.19 21.22 376.92 20.88 376.14 20.82L376.14 20.82C375.64 20.79 375.22 20.95 374.76 20.99L374.76 20.99C373.97 21.07 373.05 20.92 372.28 20.84L372.28 20.84C371.38 20.74 370.5 20.61 369.65 20.46L369.65 20.46C369.09 20.36 368.43 20.17 368.53 19.87L368.53 19.87C368.61 19.66 369.05 19.55 369.43 19.46L369.43 19.46C370.86 19.16 372.28 18.85 373.69 18.53L373.69 18.53C374.25 18.41 374.78 18.28 375.4 18.27L375.4 18.27C376.22 18.26 377.1 18.24 377.73 17.94L377.73 17.94C378.19 17.74 378.39 17.43 378.53 17.13L378.53 17.13C379.14 15.84 378.65 14.63 378.85 13.35L378.85 13.35C379.42 9.61 373.63 6.39 366.1 6.27L366.1 6.27C348.96 5.99 331.87 5.76 314.83 5.57L314.83 5.57C272.83 5.07 231.12 4.82 189.73 4.82L189.73 4.82C184.64 4.82 179.56 4.83 174.47 4.84" />
		</clipPath>
		<linearGradient id="grd2" gradientUnits="userSpaceOnUse"  x1="192.181" y1="-25.47" x2="181.974" y2="131.469">
			<stop offset="0" stop-color="#93e6ed"  />
			<stop offset="1" stop-color="#2190b5"  />
		</linearGradient>
		<clipPath clipPathUnits="userSpaceOnUse" id="cp3">
			<path d="M283.69 9.86C291.5 10.61 298.99 11.45 306.1 12.38C314.6 13.48 322.55 14.71 329.87 16.04C355.6 20.72 373.42 26.71 379.04 33.44C384.76 40.3 376.97 46.9 359.08 52.51C354.41 53.97 349.06 55.36 343.07 56.67C337.71 57.85 331.85 58.96 325.53 59.99C297.74 64.54 261.08 67.63 219.25 68.46C180.01 69.25 141.9 67.92 108.98 65.02C98.83 64.13 89.17 63.09 80.12 61.91C72.18 60.87 64.71 59.73 57.79 58.5C31.29 53.79 12.91 47.7 7.19 40.84C1.57 34.11 8.98 27.62 26.18 22.08C31.08 20.51 36.76 19.02 43.16 17.61C49.98 16.12 57.61 14.73 65.95 13.47C93.04 9.37 127.73 6.6 166.98 5.82" />
		</clipPath>
		<clipPath clipPathUnits="userSpaceOnUse" id="cp4">
			<path d="M310.4 50.88C310.01 51.46 310.41 52.24 311.82 52.34L311.82 52.34C312.76 52.41 313.74 52.37 314.44 52.03L314.44 52.03C315.22 51.65 315.72 50.96 315.03 50.48L315.03 50.48C314.71 50.26 314.22 50.1 313.73 49.96L313.73 49.96C313.42 49.88 313.11 49.84 312.81 49.84L312.81 49.84C311.73 49.84 310.77 50.33 310.4 50.88" />
		</clipPath>
		<radialGradient id="grd3" gradientUnits="userSpaceOnUse"  cx="312.628" cy="51.749" r="2.333">
			<stop offset="0" stop-color="#93e6ed"  />
			<stop offset="1" stop-color="#2a9cc1"  />
		</radialGradient>
		<clipPath clipPathUnits="userSpaceOnUse" id="cp5">
			<path d="M270.38 34.75C269.61 35.88 270.41 37.43 273.19 37.63L273.19 37.63C275.04 37.76 276.97 37.69 278.36 37.01L278.36 37.01C279.88 36.26 280.87 34.9 279.52 33.97L279.52 33.97C278.87 33.52 277.91 33.21 276.93 32.94L276.93 32.94C276.33 32.78 275.72 32.71 275.13 32.71L275.13 32.71C273 32.71 271.12 33.67 270.38 34.75" />
		</clipPath>
		<radialGradient id="grd4" gradientUnits="userSpaceOnUse"  cx="274.776" cy="36.463" r="4.597">
			<stop offset="0" stop-color="#93e6ed"  />
			<stop offset="1" stop-color="#2a9cc1"  />
		</radialGradient>
		<clipPath clipPathUnits="userSpaceOnUse" id="cp6">
			<path d="M98.89 43.51C98.12 44.64 98.92 46.18 101.7 46.38L101.7 46.38C103.54 46.51 105.47 46.45 106.86 45.77L106.86 45.77C108.39 45.02 109.38 43.66 108.03 42.72L108.03 42.72C107.38 42.27 106.42 41.96 105.44 41.7L105.44 41.7C104.83 41.53 104.23 41.46 103.64 41.46L103.64 41.46C101.51 41.46 99.63 42.42 98.89 43.51" />
		</clipPath>
		<radialGradient id="grd5" gradientUnits="userSpaceOnUse"  cx="103.284" cy="45.216" r="4.597">
			<stop offset="0" stop-color="#93e6ed"  />
			<stop offset="1" stop-color="#2a9cc1"  />
		</radialGradient>
		<clipPath clipPathUnits="userSpaceOnUse" id="cp7">
			<path d="M154.47 19.94C153.7 21.07 154.5 22.62 157.28 22.82L157.28 22.82C159.13 22.94 161.06 22.88 162.44 22.2L162.44 22.2C163.97 21.45 164.96 20.09 163.61 19.15L163.61 19.15C162.96 18.71 162 18.39 161.03 18.13L161.03 18.13C160.42 17.97 159.81 17.89 159.22 17.89L159.22 17.89C157.09 17.89 155.21 18.86 154.47 19.94" />
		</clipPath>
		<radialGradient id="grd6" gradientUnits="userSpaceOnUse"  cx="158.867" cy="21.649" r="4.596">
			<stop offset="0" stop-color="#93e6ed"  />
			<stop offset="1" stop-color="#2a9cc1"  />
		</radialGradient>
		<clipPath clipPathUnits="userSpaceOnUse" id="cp8">
			<path d="M57.26 17.06C55.67 17.19 54.06 17.4 52.74 17.87L52.74 17.87C50.01 18.84 50.08 20.94 51.47 22.32L51.47 22.32C52.74 23.58 55.33 24.12 57.99 24.37L57.99 24.37C62 24.75 64.56 22.81 64.57 21.07L64.57 21.07C64.57 19.11 62.24 17.02 58.27 17.02L58.27 17.02C57.95 17.02 57.61 17.03 57.26 17.06" />
		</clipPath>
		<radialGradient id="grd7" gradientUnits="userSpaceOnUse"  cx="56.912" cy="22.401" r="7.109">
			<stop offset="0" stop-color="#93e6ed"  />
			<stop offset="1" stop-color="#2a9cc1"  />
		</radialGradient>
		<clipPath clipPathUnits="userSpaceOnUse" id="cp9">
			<path d="M331.1 24.47C329.51 24.6 327.9 24.81 326.59 25.27L326.59 25.27C323.85 26.24 323.92 28.34 325.32 29.73L325.32 29.73C326.58 30.99 329.18 31.53 331.83 31.78L331.83 31.78C335.84 32.16 338.41 30.21 338.41 28.48L338.41 28.48C338.41 26.52 336.09 24.42 332.12 24.42L332.12 24.42C331.79 24.42 331.45 24.44 331.1 24.47" />
		</clipPath>
		<radialGradient id="grd8" gradientUnits="userSpaceOnUse"  cx="330.756" cy="29.807" r="7.109">
			<stop offset="0" stop-color="#93e6ed"  />
			<stop offset="1" stop-color="#2a9cc1"  />
		</radialGradient>
	</defs>
	<style>
		tspan { white-space:pre }
		.shp0 { fill: #000000 } 
		.shp1 { fill: url(#grd1) } 
		.shp2 { fill: url(#grd2) } 
		.shp3 { fill: url(#grd3) } 
		.shp4 { fill: url(#grd4) } 
		.shp5 { fill: url(#grd5) } 
		.shp6 { fill: url(#grd6) } 
		.shp7 { fill: url(#grd7) } 
		.shp8 { fill: url(#grd8) } 
		.shp9 { fill: #defcff } 
	</style>
	<g id="1920">
		<g id="Group 5">
			<g id="Group 37">
				<g id="Group 3">
					<path id="Clip 2" class="shp0" d="M189.91 0.87C132.64 0.87 75.62 1.35 20.45 2.3L20.45 2.3C14.66 2.4 9.34 3.63 5.47 5.76L5.47 5.76C1.62 7.88 -0.35 10.73 0.05 13.58L0.05 13.58L0.52 16.86L0.59 17.52C0.66 18.2 0.72 18.77 0.76 19.06L0.76 19.06C0.92 20.47 0.88 21.92 0.84 23.45L0.84 23.45C0.79 25.36 0.74 27.34 1.08 29.37L1.08 29.37C1.43 31.24 3.31 32.29 5.31 32.88L5.31 32.88C3.26 34.18 3.03 35.62 2.93 36.28L2.93 36.28C2.68 37.89 2.47 39.5 2.28 41.1L2.28 41.1C2.21 41.62 2.1 42.13 1.94 42.74L1.94 42.74L1.84 43.21C1.71 43.8 1.57 44.47 1.51 45.18L1.51 45.18C1.45 46 1.48 46.73 1.59 47.4L1.59 47.4C1.66 47.8 1.83 48.41 2.41 49.09L2.41 49.09C2.71 49.43 3.14 49.82 3.78 50.21L3.78 50.21C3.11 50.75 2.57 51.35 2.21 52L2.21 52C1.76 52.78 1.59 53.52 1.46 54.19L1.46 54.19C1.39 54.58 1.34 54.97 1.29 55.37L1.29 55.37C1.23 55.81 1.18 56.25 1.09 56.65L1.09 56.65L1.04 56.85C0.93 57 0.82 57.15 0.75 57.29L0.75 57.29C0.38 57.9 0.29 58.44 0.26 58.75L0.26 58.75C0.03 60.57 0.53 62.22 1.73 63.65L1.73 63.65C4.87 67.45 12.57 70.11 20.5 70.16L20.5 70.16C76.53 71.38 134 72 191.32 72L191.32 72C248.83 72 307.83 71.38 366.69 70.14L366.69 70.14C372.46 70.02 377.75 68.77 381.59 66.63L381.59 66.63C385.05 64.7 386.92 62.28 386.96 59.73L386.96 59.73L386.96 59.55C386.96 59.32 386.94 59.08 386.9 58.85L386.9 58.85C386.77 57.97 386.66 57.09 386.55 56.2L386.55 56.2C386.31 54.39 386.08 52.6 385.91 50.79L385.91 50.79C385.79 49.51 385.79 48.21 385.79 46.83L385.79 46.83L385.79 45.46C385.79 44.83 385.79 43.34 383.77 41.94L383.77 41.94C383.54 41.79 383.29 41.64 383.04 41.5L383.04 41.5C383.64 40.76 383.8 40.09 383.89 39.7L383.89 39.7C384.48 37.08 384.89 34.32 385.14 31.25L385.14 31.25C385.24 30.01 385.32 28.79 385.36 27.55L385.36 27.55C385.37 26.88 385.23 26.28 385.11 25.8L385.11 25.8C385.04 25.52 384.98 25.26 384.98 25.1L384.98 25.1C384.98 24.75 385.05 24.42 385.12 24.08L385.12 24.08C385.21 23.55 385.31 23.02 385.31 22.57L385.31 22.57C385.35 22.06 385.31 21.56 385.18 21.08L385.18 21.08C385.08 20.69 384.91 20.32 384.66 19.96L384.66 19.96C385.42 19.4 385.96 18.76 386.27 18.06L386.27 18.06C386.9 16.76 386.83 15.62 386.78 14.7L386.78 14.7C386.76 14.3 386.74 13.95 386.79 13.66L386.79 13.66C387.23 10.8 385.28 7.94 381.44 5.81L381.44 5.81C377.55 3.65 372.19 2.41 366.36 2.31L366.36 2.31C306.73 1.36 247.37 0.87 189.91 0.87Z" />
					<g id="Mask by Clip 2" clip-path="url(#cp1)">
						<path id="Fill 1" class="shp1" d="M189.91 0.87C132.64 0.87 75.62 1.35 20.45 2.3L20.45 2.3C14.66 2.4 9.34 3.63 5.47 5.76L5.47 5.76C1.62 7.88 -0.35 10.73 0.05 13.58L0.05 13.58L0.52 16.86L0.59 17.52C0.66 18.2 0.72 18.77 0.76 19.06L0.76 19.06C0.92 20.47 0.88 21.92 0.84 23.45L0.84 23.45C0.79 25.36 0.74 27.34 1.08 29.37L1.08 29.37C1.43 31.24 3.31 32.29 5.31 32.88L5.31 32.88C3.26 34.18 3.03 35.62 2.93 36.28L2.93 36.28C2.68 37.89 2.47 39.5 2.28 41.1L2.28 41.1C2.21 41.62 2.1 42.13 1.94 42.74L1.94 42.74L1.84 43.21C1.71 43.8 1.57 44.47 1.51 45.18L1.51 45.18C1.45 46 1.48 46.73 1.59 47.4L1.59 47.4C1.66 47.8 1.83 48.41 2.41 49.09L2.41 49.09C2.71 49.43 3.14 49.82 3.78 50.21L3.78 50.21C3.11 50.75 2.57 51.35 2.21 52L2.21 52C1.76 52.78 1.59 53.52 1.46 54.19L1.46 54.19C1.39 54.58 1.34 54.97 1.29 55.37L1.29 55.37C1.23 55.81 1.18 56.25 1.09 56.65L1.09 56.65L1.04 56.85C0.93 57 0.82 57.15 0.75 57.29L0.75 57.29C0.38 57.9 0.29 58.44 0.26 58.75L0.26 58.75C0.03 60.57 0.53 62.22 1.73 63.65L1.73 63.65C4.87 67.45 12.57 70.11 20.5 70.16L20.5 70.16C76.53 71.38 134 72 191.32 72L191.32 72C248.83 72 307.83 71.38 366.69 70.14L366.69 70.14C372.46 70.02 377.75 68.77 381.59 66.63L381.59 66.63C385.05 64.7 386.92 62.28 386.96 59.73L386.96 59.73L386.96 59.55C386.96 59.32 386.94 59.08 386.9 58.85L386.9 58.85C386.77 57.97 386.66 57.09 386.55 56.2L386.55 56.2C386.31 54.39 386.08 52.6 385.91 50.79L385.91 50.79C385.79 49.51 385.79 48.21 385.79 46.83L385.79 46.83L385.79 45.46C385.79 44.83 385.79 43.34 383.77 41.94L383.77 41.94C383.54 41.79 383.29 41.64 383.04 41.5L383.04 41.5C383.64 40.76 383.8 40.09 383.89 39.7L383.89 39.7C384.48 37.08 384.89 34.32 385.14 31.25L385.14 31.25C385.24 30.01 385.32 28.79 385.36 27.55L385.36 27.55C385.37 26.88 385.23 26.28 385.11 25.8L385.11 25.8C385.04 25.52 384.98 25.26 384.98 25.1L384.98 25.1C384.98 24.75 385.05 24.42 385.12 24.08L385.12 24.08C385.21 23.55 385.31 23.02 385.31 22.57L385.31 22.57C385.35 22.06 385.31 21.56 385.18 21.08L385.18 21.08C385.08 20.69 384.91 20.32 384.66 19.96L384.66 19.96C385.42 19.4 385.96 18.76 386.27 18.06L386.27 18.06C386.9 16.76 386.83 15.62 386.78 14.7L386.78 14.7C386.76 14.3 386.74 13.95 386.79 13.66L386.79 13.66C387.23 10.8 385.28 7.94 381.44 5.81L381.44 5.81C377.55 3.65 372.19 2.41 366.36 2.31L366.36 2.31C306.73 1.36 247.37 0.87 189.91 0.87Z" />
					</g>
				</g>
				<g id="Group 6">
					<path id="Clip 5" class="shp0" d="M174.47 4.84C122.73 4.92 71.46 5.39 20.7 6.26L20.7 6.26C13.21 6.38 7.46 9.58 8 13.3L8 13.3C8.1 13.3 8.3 15.08 8.47 16.64L8.47 16.64C8.57 17.7 8.68 18.65 8.72 18.84L8.72 18.84C9.09 22.21 8.45 25.66 9.01 29.02L9.01 29.02C9.09 29.43 9.13 29.46 9.83 29.58L9.83 29.58C10.21 29.64 10.57 29.71 10.95 29.77L10.95 29.77C11.72 29.91 12.48 30.03 13.26 30.16L13.26 30.16C14.79 30.43 16.32 30.69 17.88 30.95L17.88 30.95C18.61 31.08 19.41 31.22 19.93 31.53L19.93 31.53C20.88 32.07 20.52 32.97 19.53 33.51L19.53 33.51C17.85 34.41 15.38 34.46 13.21 34.84L13.21 34.84C12.68 34.93 12.16 35.04 11.74 35.24L11.74 35.24C11.06 35.58 10.95 36.11 10.86 36.58L10.86 36.58C10.63 38.16 10.41 39.76 10.23 41.35L10.23 41.35C10.15 41.94 10.01 42.54 9.87 43.14L9.87 43.14C9.71 43.87 9.53 44.59 9.47 45.33L9.47 45.33C9.43 45.9 9.43 46.49 9.53 47.06L9.53 47.06C9.55 47.21 9.61 47.38 9.73 47.53L9.73 47.53C9.99 47.83 10.57 48 11.16 48.11L11.16 48.11C13.27 48.55 15.25 49 17.04 49.72L17.04 49.72C17.34 49.83 17.67 50.01 17.55 50.19L17.55 50.19C17.49 50.31 17.26 50.39 17.04 50.45L17.04 50.45C16.2 50.68 15.37 50.96 14.49 51.17L14.49 51.17C13.93 51.3 13.35 51.3 12.78 51.39L12.78 51.39C11.24 51.64 10.29 52.35 9.87 53.09L9.87 53.09C9.61 53.55 9.49 54.06 9.39 54.53L9.39 54.53C9.25 55.39 9.19 56.26 8.99 57.11L8.99 57.11C8.95 57.27 8.91 57.42 8.89 57.58L8.89 57.58C8.82 57.88 8.54 58.13 8.38 58.43L8.38 58.43C8.26 58.62 8.22 58.8 8.2 58.99L8.2 58.99C8.08 60.06 8.26 61.16 9.09 62.15L9.09 62.15C10.96 64.41 15.66 66.2 20.7 66.2L20.7 66.2C43.04 66.69 65.46 67.07 87.94 67.36L87.94 67.36C117.59 67.75 147.38 67.97 177.28 68.02L177.28 68.02C239.76 68.14 302.79 67.53 366.34 66.19L366.34 66.19C373.81 66.03 379.5 62.84 378.97 59.14L378.97 59.14C378.83 58.25 378.7 57.35 378.6 56.46L378.6 56.46C378.35 54.63 378.13 52.81 377.95 50.98L377.95 50.98C377.83 49.6 377.83 48.21 377.83 46.84L377.83 46.84L377.83 45.46C377.83 45.05 377.81 44.6 377.31 44.27L377.31 44.27C376.68 43.82 375.46 43.72 374.37 43.65L374.37 43.65C373.85 43.62 373.29 43.56 372.77 43.58L372.77 43.58C372.32 43.61 371.98 43.61 371.52 43.56L371.52 43.56C370.3 43.46 369.09 43.34 367.88 43.23L367.88 43.23C366.66 43.12 365.45 43 364.23 42.89L364.23 42.89C363.61 42.83 363.02 42.77 362.4 42.72L362.4 42.72C361.86 42.67 361.22 42.56 360.67 42.56L360.67 42.56C359.99 42.5 359.27 42.43 358.7 42.24L358.7 42.24C358.12 42.04 357.7 41.69 357.88 41.35L357.88 41.35C358.22 41.35 358.58 41.36 358.94 41.36L358.94 41.36C361.62 41.36 364.35 41.35 367.04 41.25L367.04 41.25C368.39 41.2 369.73 41.12 371.06 41.02L371.06 41.02C372.34 40.91 374.33 40.87 375.24 40.37L375.24 40.37C375.76 40.08 375.88 39.66 375.98 39.26L375.98 39.26C376.58 36.55 376.95 33.8 377.19 31.09L377.19 31.09C377.27 29.89 377.35 28.69 377.39 27.51L377.39 27.51C377.41 26.69 377.02 25.91 377.02 25.1L377.02 25.1C377.02 24.19 377.33 23.33 377.35 22.44L377.35 22.44C377.37 22.15 377.35 21.87 377.27 21.57L377.27 21.57C377.19 21.22 376.92 20.88 376.14 20.82L376.14 20.82C375.64 20.79 375.22 20.95 374.76 20.99L374.76 20.99C373.97 21.07 373.05 20.92 372.28 20.84L372.28 20.84C371.38 20.74 370.5 20.61 369.65 20.46L369.65 20.46C369.09 20.36 368.43 20.17 368.53 19.87L368.53 19.87C368.61 19.66 369.05 19.55 369.43 19.46L369.43 19.46C370.86 19.16 372.28 18.85 373.69 18.53L373.69 18.53C374.25 18.41 374.78 18.28 375.4 18.27L375.4 18.27C376.22 18.26 377.1 18.24 377.73 17.94L377.73 17.94C378.19 17.74 378.39 17.43 378.53 17.13L378.53 17.13C379.14 15.84 378.65 14.63 378.85 13.35L378.85 13.35C379.42 9.61 373.63 6.39 366.1 6.27L366.1 6.27C348.96 5.99 331.87 5.76 314.83 5.57L314.83 5.57C272.83 5.07 231.12 4.82 189.73 4.82L189.73 4.82C184.64 4.82 179.56 4.83 174.47 4.84" />
					<g id="Mask by Clip 5" clip-path="url(#cp2)">
						<path id="Fill 4" class="shp2" d="M174.47 4.84C122.73 4.92 71.46 5.39 20.7 6.26L20.7 6.26C13.21 6.38 7.46 9.58 8 13.3L8 13.3C8.1 13.3 8.3 15.08 8.47 16.64L8.47 16.64C8.57 17.7 8.68 18.65 8.72 18.84L8.72 18.84C9.09 22.21 8.45 25.66 9.01 29.02L9.01 29.02C9.09 29.43 9.13 29.46 9.83 29.58L9.83 29.58C10.21 29.64 10.57 29.71 10.95 29.77L10.95 29.77C11.72 29.91 12.48 30.03 13.26 30.16L13.26 30.16C14.79 30.43 16.32 30.69 17.88 30.95L17.88 30.95C18.61 31.08 19.41 31.22 19.93 31.53L19.93 31.53C20.88 32.07 20.52 32.97 19.53 33.51L19.53 33.51C17.85 34.41 15.38 34.46 13.21 34.84L13.21 34.84C12.68 34.93 12.16 35.04 11.74 35.24L11.74 35.24C11.06 35.58 10.95 36.11 10.86 36.58L10.86 36.58C10.63 38.16 10.41 39.76 10.23 41.35L10.23 41.35C10.15 41.94 10.01 42.54 9.87 43.14L9.87 43.14C9.71 43.87 9.53 44.59 9.47 45.33L9.47 45.33C9.43 45.9 9.43 46.49 9.53 47.06L9.53 47.06C9.55 47.21 9.61 47.38 9.73 47.53L9.73 47.53C9.99 47.83 10.57 48 11.16 48.11L11.16 48.11C13.27 48.55 15.25 49 17.04 49.72L17.04 49.72C17.34 49.83 17.67 50.01 17.55 50.19L17.55 50.19C17.49 50.31 17.26 50.39 17.04 50.45L17.04 50.45C16.2 50.68 15.37 50.96 14.49 51.17L14.49 51.17C13.93 51.3 13.35 51.3 12.78 51.39L12.78 51.39C11.24 51.64 10.29 52.35 9.87 53.09L9.87 53.09C9.61 53.55 9.49 54.06 9.39 54.53L9.39 54.53C9.25 55.39 9.19 56.26 8.99 57.11L8.99 57.11C8.95 57.27 8.91 57.42 8.89 57.58L8.89 57.58C8.82 57.88 8.54 58.13 8.38 58.43L8.38 58.43C8.26 58.62 8.22 58.8 8.2 58.99L8.2 58.99C8.08 60.06 8.26 61.16 9.09 62.15L9.09 62.15C10.96 64.41 15.66 66.2 20.7 66.2L20.7 66.2C43.04 66.69 65.46 67.07 87.94 67.36L87.94 67.36C117.59 67.75 147.38 67.97 177.28 68.02L177.28 68.02C239.76 68.14 302.79 67.53 366.34 66.19L366.34 66.19C373.81 66.03 379.5 62.84 378.97 59.14L378.97 59.14C378.83 58.25 378.7 57.35 378.6 56.46L378.6 56.46C378.35 54.63 378.13 52.81 377.95 50.98L377.95 50.98C377.83 49.6 377.83 48.21 377.83 46.84L377.83 46.84L377.83 45.46C377.83 45.05 377.81 44.6 377.31 44.27L377.31 44.27C376.68 43.82 375.46 43.72 374.37 43.65L374.37 43.65C373.85 43.62 373.29 43.56 372.77 43.58L372.77 43.58C372.32 43.61 371.98 43.61 371.52 43.56L371.52 43.56C370.3 43.46 369.09 43.34 367.88 43.23L367.88 43.23C366.66 43.12 365.45 43 364.23 42.89L364.23 42.89C363.61 42.83 363.02 42.77 362.4 42.72L362.4 42.72C361.86 42.67 361.22 42.56 360.67 42.56L360.67 42.56C359.99 42.5 359.27 42.43 358.7 42.24L358.7 42.24C358.12 42.04 357.7 41.69 357.88 41.35L357.88 41.35C358.22 41.35 358.58 41.36 358.94 41.36L358.94 41.36C361.62 41.36 364.35 41.35 367.04 41.25L367.04 41.25C368.39 41.2 369.73 41.12 371.06 41.02L371.06 41.02C372.34 40.91 374.33 40.87 375.24 40.37L375.24 40.37C375.76 40.08 375.88 39.66 375.98 39.26L375.98 39.26C376.58 36.55 376.95 33.8 377.19 31.09L377.19 31.09C377.27 29.89 377.35 28.69 377.39 27.51L377.39 27.51C377.41 26.69 377.02 25.91 377.02 25.1L377.02 25.1C377.02 24.19 377.33 23.33 377.35 22.44L377.35 22.44C377.37 22.15 377.35 21.87 377.27 21.57L377.27 21.57C377.19 21.22 376.92 20.88 376.14 20.82L376.14 20.82C375.64 20.79 375.22 20.95 374.76 20.99L374.76 20.99C373.97 21.07 373.05 20.92 372.28 20.84L372.28 20.84C371.38 20.74 370.5 20.61 369.65 20.46L369.65 20.46C369.09 20.36 368.43 20.17 368.53 19.87L368.53 19.87C368.61 19.66 369.05 19.55 369.43 19.46L369.43 19.46C370.86 19.16 372.28 18.85 373.69 18.53L373.69 18.53C374.25 18.41 374.78 18.28 375.4 18.27L375.4 18.27C376.22 18.26 377.1 18.24 377.73 17.94L377.73 17.94C378.19 17.74 378.39 17.43 378.53 17.13L378.53 17.13C379.14 15.84 378.65 14.63 378.85 13.35L378.85 13.35C379.42 9.61 373.63 6.39 366.1 6.27L366.1 6.27C348.96 5.99 331.87 5.76 314.83 5.57L314.83 5.57C272.83 5.07 231.12 4.82 189.73 4.82L189.73 4.82C184.64 4.82 179.56 4.83 174.47 4.84" />
					</g>
				</g>
				<g id="Group 9">
					<path id="Clip 8" class="shp0" d="M283.69 9.86C291.5 10.61 298.99 11.45 306.1 12.38C314.6 13.48 322.55 14.71 329.87 16.04C355.6 20.72 373.42 26.71 379.04 33.44C384.76 40.3 376.97 46.9 359.08 52.51C354.41 53.97 349.06 55.36 343.07 56.67C337.71 57.85 331.85 58.96 325.53 59.99C297.74 64.54 261.08 67.63 219.25 68.46C180.01 69.25 141.9 67.92 108.98 65.02C98.83 64.13 89.17 63.09 80.12 61.91C72.18 60.87 64.71 59.73 57.79 58.5C31.29 53.79 12.91 47.7 7.19 40.84C1.57 34.11 8.98 27.62 26.18 22.08C31.08 20.51 36.76 19.02 43.16 17.61C49.98 16.12 57.61 14.73 65.95 13.47C93.04 9.37 127.73 6.6 166.98 5.82" />
					<g id="Mask by Clip 8" clip-path="url(#cp3)">
						<path id="Fill 7" class="shp0" d="M43.16 17.61C49.98 16.12 57.61 14.73 65.95 13.47C93.04 9.37 127.73 6.6 166.98 5.82C208.8 4.99 249.35 6.55 283.69 9.86C291.5 10.61 298.99 11.45 306.1 12.38C314.6 13.48 322.55 14.71 329.87 16.04C355.6 20.72 373.42 26.71 379.04 33.44C384.76 40.3 376.97 46.9 359.08 52.51C354.41 53.97 349.06 55.36 343.07 56.67C337.71 57.85 331.85 58.96 325.53 59.99C297.74 64.54 261.08 67.63 219.25 68.46C180.01 69.25 141.9 67.92 108.98 65.02C98.83 64.13 89.17 63.09 80.12 61.91C72.18 60.87 64.71 59.73 57.79 58.5C31.29 53.79 12.91 47.7 7.19 40.84C1.57 34.11 8.98 27.62 26.18 22.08C31.08 20.51 36.76 19.02 43.16 17.61" />
					</g>
				</g>
				<g id="Group 12">
					<path id="Clip 11" class="shp0" d="M310.4 50.88C310.01 51.46 310.41 52.24 311.82 52.34L311.82 52.34C312.76 52.41 313.74 52.37 314.44 52.03L314.44 52.03C315.22 51.65 315.72 50.96 315.03 50.48L315.03 50.48C314.71 50.26 314.22 50.1 313.73 49.96L313.73 49.96C313.42 49.88 313.11 49.84 312.81 49.84L312.81 49.84C311.73 49.84 310.77 50.33 310.4 50.88" />
					<g id="Mask by Clip 11" clip-path="url(#cp4)">
						<path id="Fill 10" class="shp3" d="M310.4 50.88C310.01 51.46 310.41 52.24 311.82 52.34L311.82 52.34C312.76 52.41 313.74 52.37 314.44 52.03L314.44 52.03C315.22 51.65 315.72 50.96 315.03 50.48L315.03 50.48C314.71 50.26 314.22 50.1 313.73 49.96L313.73 49.96C313.42 49.88 313.11 49.84 312.81 49.84L312.81 49.84C311.73 49.84 310.77 50.33 310.4 50.88" />
					</g>
				</g>
				<g id="Group 15">
					<path id="Clip 14" class="shp0" d="M270.38 34.75C269.61 35.88 270.41 37.43 273.19 37.63L273.19 37.63C275.04 37.76 276.97 37.69 278.36 37.01L278.36 37.01C279.88 36.26 280.87 34.9 279.52 33.97L279.52 33.97C278.87 33.52 277.91 33.21 276.93 32.94L276.93 32.94C276.33 32.78 275.72 32.71 275.13 32.71L275.13 32.71C273 32.71 271.12 33.67 270.38 34.75" />
					<g id="Mask by Clip 14" clip-path="url(#cp5)">
						<path id="Fill 13" class="shp4" d="M270.38 34.75C269.61 35.88 270.41 37.43 273.19 37.63L273.19 37.63C275.04 37.76 276.97 37.69 278.36 37.01L278.36 37.01C279.88 36.26 280.87 34.9 279.52 33.97L279.52 33.97C278.87 33.52 277.91 33.21 276.93 32.94L276.93 32.94C276.33 32.78 275.72 32.71 275.13 32.71L275.13 32.71C273 32.71 271.12 33.67 270.38 34.75" />
					</g>
				</g>
				<g id="Group 18">
					<path id="Clip 17" class="shp0" d="M98.89 43.51C98.12 44.64 98.92 46.18 101.7 46.38L101.7 46.38C103.54 46.51 105.47 46.45 106.86 45.77L106.86 45.77C108.39 45.02 109.38 43.66 108.03 42.72L108.03 42.72C107.38 42.27 106.42 41.96 105.44 41.7L105.44 41.7C104.83 41.53 104.23 41.46 103.64 41.46L103.64 41.46C101.51 41.46 99.63 42.42 98.89 43.51" />
					<g id="Mask by Clip 17" clip-path="url(#cp6)">
						<path id="Fill 16" class="shp5" d="M98.89 43.51C98.12 44.64 98.92 46.18 101.7 46.38L101.7 46.38C103.54 46.51 105.47 46.45 106.86 45.77L106.86 45.77C108.39 45.02 109.38 43.66 108.03 42.72L108.03 42.72C107.38 42.27 106.42 41.96 105.44 41.7L105.44 41.7C104.83 41.53 104.23 41.46 103.64 41.46L103.64 41.46C101.51 41.46 99.63 42.42 98.89 43.51" />
					</g>
				</g>
				<g id="Group 21">
					<path id="Clip 20" class="shp0" d="M154.47 19.94C153.7 21.07 154.5 22.62 157.28 22.82L157.28 22.82C159.13 22.94 161.06 22.88 162.44 22.2L162.44 22.2C163.97 21.45 164.96 20.09 163.61 19.15L163.61 19.15C162.96 18.71 162 18.39 161.03 18.13L161.03 18.13C160.42 17.97 159.81 17.89 159.22 17.89L159.22 17.89C157.09 17.89 155.21 18.86 154.47 19.94" />
					<g id="Mask by Clip 20" clip-path="url(#cp7)">
						<path id="Fill 19" class="shp6" d="M154.47 19.94C153.7 21.07 154.5 22.62 157.28 22.82L157.28 22.82C159.13 22.94 161.06 22.88 162.44 22.2L162.44 22.2C163.97 21.45 164.96 20.09 163.61 19.15L163.61 19.15C162.96 18.71 162 18.39 161.03 18.13L161.03 18.13C160.42 17.97 159.81 17.89 159.22 17.89L159.22 17.89C157.09 17.89 155.21 18.86 154.47 19.94" />
					</g>
				</g>
				<g id="Group 24">
					<path id="Clip 23" class="shp0" d="M57.26 17.06C55.67 17.19 54.06 17.4 52.74 17.87L52.74 17.87C50.01 18.84 50.08 20.94 51.47 22.32L51.47 22.32C52.74 23.58 55.33 24.12 57.99 24.37L57.99 24.37C62 24.75 64.56 22.81 64.57 21.07L64.57 21.07C64.57 19.11 62.24 17.02 58.27 17.02L58.27 17.02C57.95 17.02 57.61 17.03 57.26 17.06" />
					<g id="Mask by Clip 23" clip-path="url(#cp8)">
						<path id="Fill 22" class="shp7" d="M57.26 17.06C55.67 17.19 54.06 17.4 52.74 17.87L52.74 17.87C50.01 18.84 50.08 20.94 51.47 22.32L51.47 22.32C52.74 23.58 55.33 24.12 57.99 24.37L57.99 24.37C62 24.75 64.56 22.81 64.57 21.07L64.57 21.07C64.57 19.11 62.24 17.02 58.27 17.02L58.27 17.02C57.95 17.02 57.61 17.03 57.26 17.06" />
					</g>
				</g>
				<g id="Group 27">
					<path id="Clip 26" class="shp0" d="M331.1 24.47C329.51 24.6 327.9 24.81 326.59 25.27L326.59 25.27C323.85 26.24 323.92 28.34 325.32 29.73L325.32 29.73C326.58 30.99 329.18 31.53 331.83 31.78L331.83 31.78C335.84 32.16 338.41 30.21 338.41 28.48L338.41 28.48C338.41 26.52 336.09 24.42 332.12 24.42L332.12 24.42C331.79 24.42 331.45 24.44 331.1 24.47" />
					<g id="Mask by Clip 26" clip-path="url(#cp9)">
						<path id="Fill 25" class="shp8" d="M331.1 24.47C329.51 24.6 327.9 24.81 326.59 25.27L326.59 25.27C323.85 26.24 323.92 28.34 325.32 29.73L325.32 29.73C326.58 30.99 329.18 31.53 331.83 31.78L331.83 31.78C335.84 32.16 338.41 30.21 338.41 28.48L338.41 28.48C338.41 26.52 336.09 24.42 332.12 24.42L332.12 24.42C331.79 24.42 331.45 24.44 331.1 24.47" />
					</g>
				</g>
				<g id="Group 36">
					<path id="Fill 28" class="shp9" d="M11.23 46.24C11.19 46.93 11.19 47.64 11.64 48.29C10.83 48.11 10.13 47.85 9.77 47.45C9.47 47.11 9.49 46.74 9.51 46.38C9.53 46.04 9.43 45.68 9.47 45.33C9.58 43.99 10.07 42.68 10.23 41.35C10.49 39.03 8.96 35.6 13.76 34.24C15.14 33.86 16.73 33.24 18.13 32.94C18.3 32.91 18.49 32.89 18.67 32.86C18.95 32.81 20.76 32.47 20.75 32.38C20.91 33.22 20.36 34.09 19.26 34.73C18.61 35.11 17.77 35.41 16.85 35.6C16.38 35.7 15.87 35.77 15.36 35.81C14.62 35.86 14.52 35.85 13.93 36.19C13.71 36.32 13.51 36.46 13.26 36.57C12.78 36.78 12.61 37.11 12.41 37.41C11.82 38.25 11.48 39.13 11.4 40.02C11.37 40.36 11.37 40.7 11.3 41.03C11.28 41.11 11.25 41.2 11.22 41.28C11.18 41.37 11.08 41.45 11.02 41.54C10.57 42.21 10.63 42.96 10.84 43.65C10.92 43.91 11.09 44.15 11.19 44.4C11.44 45 11.26 45.64 11.23 46.24" />
					<path id="Fill 30" class="shp9" d="M373.58 39.95C373.78 39.54 373.91 39.07 373.82 38.65C373.74 38.32 373.62 38.09 373.71 37.74C373.93 36.84 374.11 35.94 374.25 35.04C374.46 33.66 374.57 32.28 374.57 30.89C374.57 30.25 374.74 29.5 374.46 28.88C374.31 28.55 374.17 28.29 374.11 27.94C373.87 26.48 373.23 25.02 373.28 23.56C373.3 23.12 372.72 22.65 372.32 22.27C371.36 21.38 370.08 20.58 368.53 19.92C369.01 20.08 369.91 20.13 370.47 20.21C371.15 20.31 371.82 20.4 372.49 20.5C373.71 20.68 374.95 20.93 376.2 21.01C376.53 21.04 376.85 21.04 377.07 21.18C377.37 21.39 377.33 21.77 377.35 22.01C377.42 22.67 377.26 23.33 377.14 23.99C377.07 24.36 377.01 24.73 377.01 25.1C377.01 25.91 377.41 26.7 377.39 27.51C377.26 31.35 376.85 35.35 375.98 39.26C375.88 39.66 375.77 40.08 375.24 40.37C374.82 40.6 374.22 40.72 373.63 40.81C373.27 40.88 372.9 40.93 372.52 40.97C373.03 40.68 373.39 40.32 373.58 39.95" />
					<path id="Fill 32" class="shp9" d="M8.72 18.84C8.66 18.38 8.15 13.3 8 13.3C7.47 9.59 13.21 6.38 20.71 6.26C133.41 4.32 248.62 4.38 366.1 6.27C373.63 6.39 379.43 9.62 378.85 13.35C378.64 14.62 379.15 15.84 378.52 17.13C378.39 17.43 378.19 17.74 377.73 17.95C377.32 18.12 376.77 18.19 376.22 18.25C374.81 18.42 373.41 18.61 371.99 18.77C373.22 18.22 374.62 17.56 375.19 16.76C375.58 16.22 375.26 15.76 374.9 15.24C374.34 14.45 374.24 13.69 374.17 12.85C374.09 11.81 374.46 10.33 372.8 9.5C371.56 8.88 369.92 8.34 368.35 7.96C364.48 7.01 360.01 6.82 355.77 6.73C355.55 6.73 355.34 6.73 355.12 6.72C353.84 6.7 352.56 6.68 351.29 6.67C348.65 6.64 345.97 6.72 343.37 6.55C341.03 6.4 338.65 6.46 336.34 6.69C331.69 7.14 327.35 8.24 323.62 9.67C317.78 11.92 313.31 14.91 308.92 17.87C311.74 15.61 314.55 13.35 317.37 11.09C318.32 10.32 319.32 9.48 319.11 8.58C318.91 7.73 317.21 7.16 315.64 6.99C315.01 6.92 314.36 6.95 313.73 6.94C309.57 6.92 305.42 6.84 301.26 6.81C297.27 6.79 293.28 6.78 289.29 6.78C288.03 6.78 286.77 6.78 285.51 6.78L278.23 6.77C274.87 6.77 271.51 6.76 268.14 6.76C267.98 6.76 267.83 6.76 267.66 6.76C262.34 6.75 257.01 6.75 251.68 6.75C249.02 6.74 246.35 6.74 243.69 6.74C242.48 6.74 241.12 6.82 239.92 6.71C238.71 6.6 237.72 6.23 236.43 6.18C235.28 6.12 234.08 6.22 232.93 6.27C230.03 6.38 227.12 6.52 224.22 6.68C222.91 6.75 221.48 6.86 220.6 7.35C220.3 7.51 220.07 7.72 219.7 7.85C218.89 8.14 217.76 7.95 216.82 7.78C214.93 7.45 212.94 7.27 210.94 7.23C209.14 7.19 207.36 7.35 205.56 7.3C204.42 7.26 203.33 7.13 202.22 7.02C197.83 6.59 193.25 6.56 188.81 6.4C185.51 6.28 182.21 6.2 178.91 6.14C168.26 5.95 157.6 6.05 146.95 6.28C145.57 6.31 144.16 6.31 142.78 6.37C141.01 6.46 139.41 6.77 137.61 6.79C135.26 6.82 132.95 7.03 130.72 7.4C126.21 8.15 122.14 9.48 118.56 11.02C112.44 13.65 107.4 16.89 100.95 19.32C106.8 16.18 112.65 13.03 118.5 9.89C119.64 9.27 120.87 8.55 120.74 7.72C120.63 7 119.01 6.58 117.73 6.5C117.21 6.46 116.7 6.51 116.18 6.53C114.23 6.62 112.25 6.58 110.29 6.59C106.84 6.6 103.36 6.59 99.89 6.59C98.72 6.59 97.59 6.7 96.44 6.7C95.4 6.7 94.36 6.59 93.31 6.59C91.12 6.6 88.93 6.82 86.91 7.23C86.12 7.39 85.32 7.58 84.47 7.55C82.92 7.51 81.84 6.78 80.44 6.45C77.1 5.66 73.65 7.17 70.24 6.56C68.54 6.25 66.81 6.3 65.02 6.29C62.75 6.28 60.47 6.27 58.19 6.28C50.47 6.3 42.74 6.43 35.06 6.81C31.23 7.01 27.41 7.26 23.61 7.6C21.78 7.76 19.91 8.03 18.06 8.13C17.48 8.17 17.06 8.16 16.55 8.34C14.29 9.13 8.04 13.54 12.5 15.09C12.78 15.19 13.09 15.27 13.41 15.33C13.89 15.43 14.4 15.47 14.87 15.56C15.37 15.65 16.03 15.59 16.55 15.59C17.82 15.58 19.1 15.58 20.37 15.57C21.72 15.57 23.09 15.57 24.39 15.76C21.49 16.05 18.59 16.34 15.69 16.63C14.75 16.73 13.81 16.83 12.93 17.02C12.77 17.06 12.61 17.07 12.46 17.1C11.84 17.22 11.38 17.58 11.16 17.87C10.58 18.63 10.94 19.46 10.69 20.25C10.25 21.65 10.8 23.17 11.07 24.58C11.43 26.38 11.87 28.18 12.42 29.97C11.87 29.93 11.32 29.9 10.77 29.87C10.25 29.84 9.68 29.79 9.34 29.58C9.09 29.43 9.05 29.22 9.02 29.01C8.45 25.66 9.09 22.21 8.72 18.84" />
					<path id="Fill 34" class="shp9" d="M378.96 59.14C378.56 56.42 378.22 53.7 377.96 50.98C377.88 50.17 377.85 49.36 377.84 48.56C377.81 47.3 377.88 46.05 377.92 44.8C377.94 44.34 377.09 44.05 376.36 43.83C375.35 43.53 374.21 43.34 373.08 43.19C372.87 43.16 372.66 43.13 372.45 43.1C371.12 42.92 369.78 42.76 368.43 42.63C367.28 42.51 366.11 42.46 365.03 42.23C363.96 42.01 362.6 42.09 361.46 42.06C360.76 42.05 360.06 42.03 359.36 42.01C358.78 42 357.88 42.07 357.34 41.97C358.7 42.2 360.05 42.44 361.41 42.67C362.07 42.79 362.74 42.91 363.4 43.02C365.12 43.32 367.01 43.35 368.82 43.47C370.19 43.56 371.64 43.67 372.75 44.08C373.77 44.46 374.39 45.05 374.69 45.67C374.85 46 374.92 46.34 374.96 46.67C374.99 46.97 374.94 47.26 375.13 47.54C375.32 47.83 375.36 48.11 375.41 48.41C375.42 48.51 375.64 49.41 375.53 49.43C374.4 49.66 373.54 50.19 373.32 50.79C373.16 51.24 373.37 51.74 373.9 52.12C374.1 52.27 374.39 52.37 374.6 52.5C374.85 52.68 374.85 52.9 374.88 53.1C375.04 54.23 374.85 55.36 374.86 56.49C374.88 57.35 374.88 58.21 374.92 59.07C374.94 59.3 375.13 59.52 375.22 59.77C375.39 60.27 375.28 60.78 374.98 61.26C374.37 62.25 372.99 63.14 371.25 63.7C368.21 64.68 364.44 64.88 360.83 65.01C354.81 65.23 348.74 65.21 342.74 65.49C340.74 65.57 338.76 65.67 336.77 65.75C332.79 65.91 328.8 66.06 324.82 66.19C317.28 66.45 309.73 66.63 302.19 66.76C284.35 67.06 266.47 67.03 248.6 66.98C246.44 66.98 244.27 66.97 242.1 66.97C240.35 66.96 238.69 67.08 236.95 67C232.77 66.79 228.58 67.17 224.43 67.4C220.79 67.6 217.38 67.44 213.76 67.33C211.27 67.24 208.99 66.2 210.33 64.89C210.83 64.41 211.65 64.04 212.43 63.66C217.71 61.16 222.3 58.3 226.06 55.19C224.32 56.26 222.5 57.31 220.6 58.32C217.22 60.12 213.59 61.8 209.76 63.36C207.84 64.14 205.87 64.89 203.85 65.61C202.98 65.92 202.01 66.36 200.98 66.53C200.64 66.59 200.29 66.59 199.94 66.62C198.35 66.74 196.81 66.98 195.2 67.08C195.15 67.09 195.1 67.09 195.06 67.09C189.86 67.43 184.86 67.24 179.67 67.07C175.85 66.94 171.85 67.26 168.21 66.59C165.4 66.07 162.44 65.35 159.56 65.74C158.54 65.88 157.62 66.15 156.64 66.34C154.74 66.71 152.67 66.79 150.63 66.84C149.35 66.87 148.08 66.9 146.8 66.92C141.49 67.01 136.16 66.99 130.85 66.88C128.62 66.83 126.35 66.84 124.19 66.52C122.7 66.3 121.21 66.44 119.67 66.49C113.21 66.7 106.73 66.75 100.27 66.64C97.63 66.6 94.99 66.53 92.36 66.43C91.07 66.38 89.74 66.27 88.45 66.27C87.57 66.27 86.75 66.41 85.86 66.41C80.51 66.4 75.15 66.36 69.79 66.33C60.63 66.29 51.47 66.24 42.31 66.19C36.04 66.61 30.81 66.08 24.6 65.52C19.52 65.05 13.98 64.03 11.87 61.68C10.98 60.7 10.84 59.61 10.92 58.55C10.94 58.24 11 57.93 10.92 57.62C10.85 57.33 10.64 57.06 10.55 56.77C10.26 55.82 10.86 54.71 11.34 53.79C11.58 53.32 11.89 52.78 12.63 52.44C12.86 52.34 13.12 52.25 13.35 52.14C13.84 51.93 14.31 51.71 14.77 51.48C15.69 51.03 16.57 50.55 17.39 50.06C17.25 50.14 16.22 50.18 15.96 50.22C15.48 50.29 15.01 50.39 14.55 50.5C13.64 50.73 12.81 51.03 12.07 51.38C10.83 51.98 9.24 53.03 9.43 53.94C9.55 54.5 9.31 55.11 9.23 55.68C9.15 56.31 9.06 56.95 8.88 57.58C8.81 57.88 8.54 58.14 8.37 58.43C8.26 58.61 8.22 58.8 8.21 58.99C8.07 60.06 8.26 61.16 9.09 62.15C10.96 64.41 15.66 66.2 20.71 66.2C134.07 68.68 249.3 68.64 366.34 66.19C373.8 66.03 379.51 62.84 378.96 59.14" />
				</g>
			</g>
		</g>
	</g>
</svg>